# xmcd CD database file
#
# Track frame offsets:
#	150
#	13345
#	28692
#	40330
#	53492
#	69940
#	84882
#	97105
#	110860
#	121470
#
# Disc length: 1823 seconds
#
# Revision: 1
# Processed by: cddbd v1.5.2PL0 Copyright (c) Steve Scherf et al.
# Submitted via: CDex 1.70beta2
#
DISCID=81071d0a
DTITLE=Eric Kaz - CUL-DE-SAC
DYEAR=1974
DGENRE=Folk-Rock
TTITLE0=Looking For A Sign
TTITLE1=I Can't Live Without You
TTITLE2=There Is No End
TTITLE3=Shadow of Night
TTITLE4=Deliver Me
TTITLE5=My Love Will Never Die
TTITLE6=Good As It Can Be
TTITLE7=I'm Goin' Down Slow
TTITLE8=I'll Find The Way
TTITLE9=Come With Me
EXTD=
EXTT0=
EXTT1=
EXTT2=
EXTT3=
EXTT4=
EXTT5=
EXTT6=
EXTT7=
EXTT8=
EXTT9=
PLAYORDER=
